<svg xmlns="http://www.w3.org/2000/svg" width="245.07" height="67.21" viewBox="0 0 245.07 67.21"><g><path d="M58.87,34.19V56.77c0,4.7-3.13,7.87-7.82,7.87q-20.44,0-40.87,0a7.45,7.45,0,0,1-7.85-7.86q0-22.65,0-45.28C2.33,7,5,3.82,9.51,3.62c5.26-.24,10.53-.11,15.8-.07,1.62,0,2.36.91,2.41,2.6,0,1.3,0,2.59,0,3.89V42.57c0,1.89-.26,2.14-2.19,2.14H7.91c-1.42,0-1.54.16-1.08,1.45a22.24,22.24,0,0,0,6.4,9.73c6.64,5.69,14.31,7.88,22.93,6A23.7,23.7,0,0,0,51.53,51.74a40.63,40.63,0,0,0,2.93-5.23c.76-1.61.56-1.8-1.18-1.8H35.52c-1.75,0-2.05-.29-2.05-2q0-18,0-35.93c0-2.47.74-3.23,3.16-3.23h14C54,3.5,56.73,4.75,58.16,8a8.38,8.38,0,0,1,.68,3.28C58.9,18.9,58.87,26.55,58.87,34.19Z" style="fill: #8b8b8b"></path><path d="M139.32,25h5.28c.05.88.1,1.76.17,2.92,2.78-2.9,6.09-3.53,9.64-3.15a11.64,11.64,0,0,1,7.82,3.7c4,4.53,3.91,12.33,0,16.91-3,3.54-11.82,5.82-17.31.73V57h-5.6ZM152,44.37c4.05.38,7.66-3.35,7.67-7.44a7.57,7.57,0,0,0-7.38-7.69c-4.31,0-7.4,3.07-7.46,7.52S147.68,44.3,152,44.37Z" style="fill: #8b8b8b"></path><path d="M89.26,36.66V48.52H83.68V17.66h23.21v4.69H89.37v9.52h15.39v4.79Z" style="fill: #8b8b8b"></path><path d="M126,34.85c.16-3.42-1.75-5.47-5.11-5.66A12.45,12.45,0,0,0,113.38,31a8.48,8.48,0,0,1-1,.46l-2.11-3.9a10.41,10.41,0,0,1,5.53-2.36,30.67,30.67,0,0,1,7.59-.31c5.32.53,8.11,3.49,8.33,8.83.2,4.72,0,9.46,0,14.2a3,3,0,0,1-.14.6h-5.13c-.06-.73-.13-1.46-.19-2.22-4.19,3.5-8.66,3.55-13.31,1.38-2.53-1.18-3.49-3.38-3.43-6a5.74,5.74,0,0,1,3.57-5.56,15.42,15.42,0,0,1,6.38-1.25Zm-.14,3.45c-2.68.13-5.41.14-8.12.43a2.75,2.75,0,0,0-2.58,2.76,2.9,2.9,0,0,0,2.13,3.14,10.44,10.44,0,0,0,4,.33C124.07,44.6,127,42.58,125.9,38.3Z" style="fill: #8b8b8b"></path><path d="M190.76,48.53H185.6l-.15-2.29c-3.45,3.19-7.39,3.32-11.53,2.29a6.63,6.63,0,0,1-5.24-6.7,6.11,6.11,0,0,1,5.24-6.33,35.08,35.08,0,0,1,5.52-.63c1.89-.1,3.79,0,5.66,0,.36-3.38-1.67-5.47-5.36-5.66a14.16,14.16,0,0,0-8.23,2.28l-2.18-4a28.21,28.21,0,0,1,3.21-1.6,20.33,20.33,0,0,1,10.65-.91c4.31.81,7.56,3.71,7.68,8.77.11,4.77,0,9.54,0,14.32A2.47,2.47,0,0,1,190.76,48.53Zm-5.68-10.11c-2.06,0-4.11,0-6.16,0a10.64,10.64,0,0,0-2.49.42,2.66,2.66,0,0,0-2.09,2.52,2.85,2.85,0,0,0,1.57,3,7.2,7.2,0,0,0,7.05-.35C185.05,42.85,185.6,40.91,185.08,38.42Z" style="fill: #8b8b8b"></path><path d="M237,34.85c.25-3.46-1.76-5.52-5.44-5.66a12.7,12.7,0,0,0-8.16,2.31c-.72-1.31-1.4-2.57-2.2-4a26.71,26.71,0,0,1,3-1.55,20.2,20.2,0,0,1,11.69-.77A7.75,7.75,0,0,1,242,30.91a21.68,21.68,0,0,1,.73,4.94c.1,3.76,0,7.52,0,11.28v1.38h-5.3l-.13-2a22.16,22.16,0,0,1-3.74,1.94c-3.66,1.1-7.33,1.13-10.55-1.28a6.56,6.56,0,0,1,1.52-11.28,19.09,19.09,0,0,1,5.44-1C232.25,34.72,234.56,34.85,237,34.85Zm0,3.73c-2.5,0-5,0-7.48,0a7.62,7.62,0,0,0-2,.65,2.22,2.22,0,0,0-1.47,2.4,2.69,2.69,0,0,0,1.35,2.5,6.53,6.53,0,0,0,4.9.81C235.66,44.22,237.74,42.39,236.9,38.58Z" style="fill: #8b8b8b"></path><path d="M195.35,46.39l2.27-3.88a45.51,45.51,0,0,0,5.91,1.83,18.39,18.39,0,0,0,5.29,0A2.42,2.42,0,0,0,211.24,42c0-1.11-.73-2-2.39-2.32-2.21-.49-4.46-.82-6.68-1.25a7.41,7.41,0,0,1-5.6-4,5.28,5.28,0,0,1,0-4.59A8.62,8.62,0,0,1,203.11,25a21.82,21.82,0,0,1,11.7,1c.4.16.79.38,1.25.6l-1.9,3.78c-2.36-.48-4.5-1.06-6.68-1.3a11.81,11.81,0,0,0-3.94.45,2.18,2.18,0,0,0-1.85,2.13,2.11,2.11,0,0,0,1.81,2.14c2,.49,4,.81,5.94,1.24a26.32,26.32,0,0,1,3.28.85,5.43,5.43,0,0,1,4,4.46,6.4,6.4,0,0,1-2.25,6.31A12.19,12.19,0,0,1,207.67,49a21.8,21.8,0,0,1-11.56-2.12A7.78,7.78,0,0,1,195.35,46.39Z" style="fill: #8b8b8b"></path></g></svg>